<?xml version="1.0" encoding="UTF-8"?>
<!-- Generator: visioncortex VTracer 0.6.3 -->
<svg version="1.1" xmlns="http://www.w3.org/2000/svg" width="1280" height="512">
<path d="M0 0 C422.4 0 844.8 0 1280 0 C1280 168.96 1280 337.92 1280 512 C857.6 512 435.2 512 0 512 C0 343.04 0 174.08 0 0 Z " fill="#FBFCFE" transform="translate(0,0)"/>
<path d="M0 0 C4.25 3.44 8.03 7.28 11.84 11.19 C12.94 12.29 14.05 13.4 15.15 14.5 C17.44 16.81 19.73 19.12 22.01 21.44 C24.92 24.42 27.86 27.37 30.8 30.32 C33.61 33.15 36.41 35.98 39.22 38.81 C39.75 39.35 40.29 39.89 40.83 40.44 C42.34 41.96 43.84 43.49 45.34 45.02 C46.62 46.32 46.62 46.32 47.93 47.65 C49.76 49.73 50.93 51.46 52 54 C39.36 69.14 39.36 69.14 30.88 70.5 C18.98 68.97 9.55 57.74 2.41 48.77 C-1.35 44.45 -5.61 42.58 -11.23 41.62 C-19.76 41.16 -26.38 44.3 -32.67 49.91 C-34.92 52.01 -37.12 54.14 -39.3 56.31 C-41.01 58.01 -42.76 59.69 -44.51 61.36 C-56.17 72.4 -56.17 72.4 -62 87 C-62.11 95.88 -58.62 102.78 -52.51 109.07 C-51.66 109.91 -51.66 109.91 -50.8 110.77 C-50.21 111.37 -49.61 111.97 -49 112.59 C-47.75 113.84 -46.49 115.1 -45.23 116.35 C-43.32 118.24 -41.43 120.16 -39.55 122.09 C-38.32 123.31 -37.09 124.54 -35.86 125.77 C-35.31 126.33 -34.76 126.9 -34.19 127.48 C-29.23 132.33 -23.65 135.44 -16.74 136.5 C-7.05 136.3 -0.86 133.81 6 127 C7.18 125.68 8.35 124.35 9.5 123 C15.39 116.13 21.08 111.01 30.31 109.44 C39.56 110.85 45.2 116.79 50.6 124.02 C51.06 124.68 51.52 125.33 52 126 C50.46 129.65 48.27 132 45.49 134.8 C45.04 135.26 44.58 135.72 44.11 136.2 C42.61 137.72 41.1 139.24 39.59 140.75 C38.53 141.81 37.48 142.87 36.42 143.93 C34.21 146.16 32 148.37 29.78 150.59 C26.95 153.42 24.14 156.26 21.33 159.1 C19.15 161.3 16.97 163.49 14.79 165.67 C13.75 166.71 12.71 167.76 11.67 168.81 C-1.78 182.45 -1.78 182.45 -12.31 182.6 C-13.01 182.58 -13.71 182.57 -14.44 182.56 C-15.14 182.59 -15.84 182.61 -16.56 182.63 C-25.18 182.61 -31.68 177.75 -37.64 171.91 C-38.28 171.27 -38.91 170.63 -39.57 169.97 C-40.26 169.28 -40.96 168.59 -41.68 167.88 C-43.96 165.62 -46.22 163.35 -48.49 161.08 C-50.08 159.49 -51.67 157.91 -53.26 156.32 C-56.59 153.01 -59.91 149.68 -63.22 146.36 C-67.46 142.1 -71.71 137.87 -75.97 133.64 C-79.26 130.38 -82.54 127.1 -85.81 123.82 C-87.38 122.25 -88.95 120.69 -90.52 119.13 C-92.72 116.95 -94.9 114.75 -97.08 112.55 C-97.72 111.92 -98.37 111.29 -99.03 110.63 C-104.64 104.91 -108.57 98.28 -108.56 90.06 C-107.82 72.8 -90.02 59.84 -78.59 48.35 C-77.97 47.73 -77.36 47.11 -76.72 46.47 C-73.46 43.19 -70.2 39.92 -66.94 36.64 C-63.6 33.29 -60.27 29.93 -56.94 26.56 C-54.35 23.94 -51.75 21.33 -49.15 18.73 C-47.92 17.49 -46.69 16.25 -45.46 15.01 C-32.74 2.1 -18.38 -10.24 0 0 Z " fill="#2A63E7" transform="translate(175,176)"/>
<path d="M0 0 C2.53 2.36 2.53 2.36 4.94 5.31 C10.85 12.29 10.85 12.29 19.25 15.33 C24.17 15.55 26.91 14.89 31 12 C32.91 10.18 34.75 8.35 36.56 6.44 C43.52 -0.9 43.52 -0.9 48.74 -1.11 C53.71 0.58 56.61 4.01 60.19 7.75 C60.9 8.47 61.61 9.18 62.34 9.92 C70.32 18.09 70.32 18.09 71.75 24.19 C70.54 30.32 66.42 33.67 62.06 37.94 C61.23 38.81 60.4 39.69 59.54 40.59 C52.55 47.56 52.55 47.56 47.2 47.83 C43.03 47.36 40.75 45.83 37.81 42.81 C36.97 41.99 36.14 41.18 35.27 40.33 C34.52 39.56 33.77 38.79 33 38 C29.19 34.13 25.93 32.07 20.45 31.73 C15.85 32.23 11.57 34.07 8 37 C6.88 39.4 6.88 39.4 7 42 C8.1 44.09 8.1 44.09 9.94 45.88 C10.5 46.49 11.07 47.11 11.65 47.74 C13.54 49.56 15.46 51.26 17.45 52.97 C22.92 57.71 28.01 62.82 33.12 67.93 C34.82 69.63 36.53 71.32 38.24 73.02 C39.33 74.11 40.43 75.2 41.52 76.29 C42.03 76.79 42.53 77.29 43.05 77.8 C46.87 81.65 50.15 85.42 50.81 90.94 C50.9 91.57 50.99 92.19 51.08 92.84 C50.82 99.71 47.18 103.38 42.53 107.89 C41.58 108.84 41.58 108.84 40.6 109.81 C39.26 111.14 37.92 112.47 36.57 113.79 C34.5 115.81 32.44 117.85 30.39 119.9 C29.08 121.19 27.78 122.48 26.47 123.77 C25.54 124.69 25.54 124.69 24.6 125.62 C20.51 129.61 18.55 131.18 12.88 131.44 C6.53 131.36 3.46 129.31 -1 125 C-1.68 124.36 -2.36 123.72 -3.06 123.07 C-6.3 119.92 -9.31 116.67 -12.19 113.19 C-17.18 107.28 -23.1 105.46 -30.69 104.56 C-38.53 104.76 -46.24 108.93 -52 114 C-53.14 115.22 -54.25 116.47 -55.31 117.75 C-66.35 130.65 -66.35 130.65 -71.32 131.31 C-72.71 131.37 -72.71 131.37 -74.12 131.44 C-75.04 131.5 -75.95 131.56 -76.88 131.62 C-85.79 129.85 -92.56 120.75 -98.75 114.51 C-100.39 112.86 -102.03 111.23 -103.68 109.59 C-104.74 108.54 -105.79 107.48 -106.84 106.43 C-107.33 105.94 -107.82 105.46 -108.32 104.96 C-112.12 101.1 -113.81 98.64 -114.44 93.25 C-114.08 83.74 -105.19 76.66 -98.86 70.36 C-97.25 68.75 -95.67 67.12 -94.08 65.49 C-87.76 59.1 -81.84 53.31 -72.44 52.81 C-65.76 55.12 -61.63 60.25 -57.02 65.43 C-56.56 65.95 -56.1 66.47 -55.62 67 C-55.16 67.52 -54.7 68.04 -54.23 68.57 C-48.87 74.45 -42.39 80.48 -34.18 81.27 C-24.88 81.56 -19.59 80.04 -12.62 73.91 C-4.67 66.36 -4.67 66.36 -0.19 56.62 C-2.36 46.94 -12.38 41.17 -20.01 35.69 C-24.31 32.55 -27.76 29.92 -30 25 C-28.96 20.45 -27.3 17.8 -24.01 14.55 C-23.22 13.76 -22.43 12.98 -21.62 12.17 C-20.8 11.37 -19.97 10.57 -19.12 9.75 C-18.31 8.94 -17.49 8.12 -16.65 7.28 C-7.03 -2.2 -7.03 -2.2 0 0 Z " fill="#2A63E7" transform="translate(236,174)"/>
<path d="M0 0 C7.05 3.82 11.22 10.12 14.44 17.32 C16.82 25.49 17.11 37.57 13.94 45.51 C9.78 52.85 3.36 58.45 -4.56 61.32 C-13.18 63.47 -22.49 62.96 -30.4 58.84 C-39.23 53.47 -43.83 48.35 -46.83 38.4 C-49.18 28.52 -47.02 19.61 -42.16 10.77 C-32.84 -2.79 -14.66 -6.1 0 0 Z " fill="#FCFDFF" transform="translate(503.5625,237.6796875)"/>
<path d="M0 0 C5.96 2.27 9.22 9.57 12.45 14.77 C13.36 16.17 14.27 17.57 15.18 18.97 C17.06 21.85 18.92 24.74 20.76 27.64 C24.58 33.65 28.52 39.57 32.46 45.5 C33.62 47.24 34.77 49 35.92 50.75 C36.61 51.8 37.31 52.86 38.02 53.94 C38.63 54.87 39.23 55.79 39.86 56.74 C41.49 59.18 41.49 59.18 44.52 60.96 C44.85 41.49 45.18 22.02 45.52 1.96 C47.89 0.77 49.43 0.82 52.08 0.83 C53.29 0.83 53.29 0.83 54.52 0.82 C56.52 0.96 56.52 0.96 57.52 1.96 C57.61 4.54 57.64 7.1 57.63 9.69 C57.63 10.5 57.63 11.31 57.63 12.14 C57.63 14.83 57.62 17.52 57.61 20.21 C57.61 22.07 57.61 23.93 57.61 25.79 C57.6 30.69 57.59 35.6 57.58 40.5 C57.57 45.5 57.57 50.5 57.56 55.5 C57.55 65.32 57.54 75.14 57.52 84.96 C55.74 85 53.96 85.04 52.19 85.07 C50.7 85.1 50.7 85.1 49.19 85.13 C46.52 84.96 46.52 84.96 43.78 83.13 C40.51 78.55 37.34 73.92 34.27 69.21 C32.85 67.06 31.43 64.91 30.02 62.76 C29.65 62.2 29.29 61.65 28.91 61.08 C26.25 57.05 23.55 53.05 20.83 49.06 C20.44 48.5 20.06 47.94 19.67 47.36 C17.81 44.65 15.96 41.95 14.1 39.24 C13.09 37.77 13.09 37.77 12.06 36.26 C11.47 35.41 10.88 34.55 10.28 33.66 C8.23 30.51 6.38 27.22 4.52 23.96 C4.19 44.09 3.86 64.22 3.52 84.96 C-0.11 84.96 -3.74 84.96 -7.48 84.96 C-9.9 81.33 -9.77 78.69 -9.76 74.5 C-9.76 73.75 -9.77 72.99 -9.78 72.21 C-9.79 69.71 -9.79 67.21 -9.79 64.71 C-9.79 62.97 -9.79 61.23 -9.8 59.49 C-9.81 55.85 -9.81 52.21 -9.8 48.57 C-9.79 43.9 -9.81 39.23 -9.83 34.56 C-9.85 30.97 -9.85 27.38 -9.85 23.79 C-9.85 22.07 -9.85 20.35 -9.86 18.63 C-9.88 16.22 -9.87 13.81 -9.86 11.41 C-9.87 10.34 -9.87 10.34 -9.88 9.25 C-9.83 4.43 -9.83 4.43 -8.08 2.04 C-5.36 0.19 -3.27 -0.13 0 0 Z " fill="#020202" transform="translate(663.48486328125,224.04443359375)"/>
<path d="M0 0 C3.36 0.08 4.53 0.47 6.96 2.85 C8.63 5.14 10.18 7.45 11.65 9.86 C13.19 12.32 14.8 14.73 16.42 17.14 C19.26 21.39 22.09 25.65 24.91 29.91 C26.82 32.81 28.74 35.7 30.66 38.6 C31.64 40.09 32.63 41.58 33.61 43.07 C35.06 45.26 36.5 47.44 37.95 49.62 C38.39 50.29 38.82 50.95 39.27 51.64 C39.69 52.26 40.1 52.88 40.53 53.52 C40.89 54.06 41.24 54.6 41.61 55.16 C43.2 57.23 45 59 46.88 60.81 C46.88 60.09 46.89 59.37 46.9 58.62 C46.98 51.83 47.06 45.03 47.16 38.23 C47.21 34.73 47.26 31.24 47.3 27.74 C47.34 23.73 47.4 19.71 47.46 15.7 C47.47 14.44 47.48 13.18 47.5 11.88 C47.52 10.72 47.54 9.56 47.56 8.36 C47.57 7.34 47.58 6.31 47.6 5.25 C47.88 2.81 47.88 2.81 49.88 0.81 C52 0.58 52 0.58 54.44 0.62 C55.65 0.63 55.65 0.63 56.88 0.64 C58.88 0.81 58.88 0.81 59.88 1.81 C59.97 4.4 60 6.96 59.99 9.55 C59.99 10.35 59.99 11.16 59.99 12 C59.99 14.69 59.98 17.38 59.97 20.07 C59.97 21.93 59.97 23.79 59.97 25.64 C59.96 30.55 59.95 35.45 59.94 40.36 C59.93 45.36 59.93 50.36 59.92 55.36 C59.91 65.18 59.9 74.99 59.88 84.81 C50.42 85.87 50.42 85.87 46.98 83.51 C45.43 81.69 44.14 79.84 42.88 77.81 C42.46 77.22 42.04 76.63 41.61 76.02 C40.33 74.21 39.11 72.37 37.9 70.51 C37.45 69.83 37 69.15 36.54 68.45 C35.59 67.02 34.65 65.59 33.7 64.15 C31.26 60.44 28.81 56.73 26.35 53.03 C25.87 52.31 25.4 51.59 24.9 50.85 C19.72 43.05 14.33 35.42 8.88 27.81 C8.22 26.82 7.55 25.83 6.88 24.81 C6.54 44.61 6.22 64.41 5.88 84.81 C2.25 84.81 -1.38 84.81 -5.12 84.81 C-6.85 83.09 -6.26 80.87 -6.27 78.57 C-6.27 77.82 -6.27 77.07 -6.27 76.3 C-6.27 75.51 -6.28 74.72 -6.28 73.91 C-6.29 71.3 -6.29 68.68 -6.29 66.07 C-6.3 64.26 -6.3 62.45 -6.3 60.64 C-6.31 56.84 -6.31 53.04 -6.31 49.24 C-6.31 44.36 -6.32 39.49 -6.34 34.61 C-6.35 30.87 -6.35 27.13 -6.35 23.39 C-6.35 21.59 -6.36 19.79 -6.37 17.99 C-6.38 15.48 -6.37 12.97 -6.37 10.46 C-6.37 9.71 -6.38 8.96 -6.38 8.19 C-6.35 2.81 -5.58 0.57 0 0 Z " fill="#020202" transform="translate(565.125,224.1875)"/>
<path d="M0 0 C9.12 6.23 15.86 16.46 18.06 27.25 C19.7 39.19 19.41 51.71 12.56 62.06 C4.41 72.59 -4.48 78.41 -17.64 80.43 C-31.3 82.05 -43.27 79.02 -54.31 70.75 C-54.91 70.35 -55.5 69.95 -56.11 69.54 C-63.92 63.87 -67.85 53.97 -69.31 44.75 C-70.58 31.34 -67.82 19.33 -59.31 8.75 C-44.26 -8.74 -19.49 -10.98 0 0 Z M-49.31 14.75 C-55.05 23.19 -58.65 32.47 -57.31 42.75 C-55 52.97 -51.29 59.38 -42.5 65.06 C-33.41 70.17 -23.62 71.06 -13.54 68.56 C-6.51 66 -0.46 59.85 3.69 53.75 C7.46 45.14 7.34 32.02 4.25 23.19 C0.55 15.81 -4.84 9.33 -12.56 6.12 C-25.55 2.34 -39.83 4.57 -49.31 14.75 Z " fill="#020202" transform="translate(513.3125,230.25)"/>
<path d="M0 0 C0.97 0 1.94 0 2.94 0 C4.04 0 5.13 -0 6.26 -0.01 C7.45 0 8.64 0.01 9.87 0.02 C11.69 0.02 11.69 0.02 13.55 0.02 C16.13 0.02 18.7 0.03 21.27 0.04 C25.23 0.06 29.18 0.06 33.14 0.06 C35.63 0.07 38.13 0.07 40.62 0.08 C41.81 0.08 43 0.08 44.23 0.08 C45.87 0.09 45.87 0.09 47.55 0.1 C48.52 0.11 49.49 0.11 50.48 0.11 C52.68 0.25 52.68 0.25 53.68 1.25 C53.75 3.78 53.77 6.28 53.74 8.81 C53.74 9.52 53.73 10.23 53.73 10.96 C53.72 12.73 53.7 14.49 53.68 16.25 C51.96 16.28 51.96 16.28 50.21 16.32 C45.97 16.42 41.73 16.52 37.5 16.62 C35.66 16.66 33.83 16.7 31.99 16.74 C29.36 16.8 26.72 16.87 24.09 16.93 C23.26 16.95 22.44 16.96 21.59 16.98 C17.82 16.73 17.82 16.73 14.68 18.25 C14.61 20.94 14.59 23.61 14.62 26.31 C14.62 27.07 14.62 27.83 14.63 28.61 C14.64 30.49 14.66 32.37 14.68 34.25 C15.94 34.28 15.94 34.28 17.23 34.32 C20.35 34.42 23.47 34.52 26.59 34.62 C27.94 34.66 29.29 34.7 30.64 34.74 C32.58 34.8 34.52 34.87 36.46 34.93 C37.62 34.97 38.79 35 39.99 35.04 C42.68 35.25 42.68 35.25 43.68 36.25 C43.75 38.43 43.76 40.62 43.74 42.81 C43.73 44.01 43.72 45.2 43.71 46.44 C43.7 47.37 43.69 48.29 43.68 49.25 C42.84 49.27 41.99 49.3 41.12 49.32 C38.01 49.42 34.89 49.52 31.77 49.62 C30.42 49.66 29.07 49.7 27.72 49.74 C25.78 49.8 23.84 49.87 21.9 49.93 C20.73 49.97 19.57 50 18.36 50.04 C15.76 49.95 15.76 49.95 14.68 51.25 C14.52 53.69 14.42 56.11 14.36 58.56 C14.34 59.29 14.32 60.03 14.3 60.78 C14.23 63.12 14.17 65.47 14.12 67.81 C14.07 69.4 14.03 70.98 13.98 72.57 C13.88 76.46 13.78 80.35 13.68 84.25 C10.87 84.27 8.05 84.29 5.24 84.31 C4.44 84.32 3.64 84.33 2.81 84.34 C0.77 84.34 -1.28 84.3 -3.32 84.25 C-5.05 82.52 -4.45 80.31 -4.47 78 C-4.47 77.25 -4.47 76.5 -4.47 75.73 C-4.47 74.94 -4.47 74.16 -4.48 73.35 C-4.49 70.73 -4.49 68.12 -4.49 65.5 C-4.49 63.69 -4.5 61.88 -4.5 60.07 C-4.51 56.27 -4.51 52.47 -4.51 48.67 C-4.51 43.8 -4.52 38.92 -4.54 34.04 C-4.55 30.3 -4.55 26.56 -4.55 22.82 C-4.55 21.03 -4.56 19.23 -4.56 17.43 C-4.57 14.92 -4.57 12.41 -4.56 9.89 C-4.57 9.15 -4.58 8.4 -4.58 7.63 C-4.54 0.48 -4.54 0.48 0 0 Z " fill="#2A63E7" transform="translate(1082.321792602539,224.7527618408203)"/>
<path d="M0 0 C5.97 -0.87 12.12 -1.75 18 0 C22.1 3.13 23.99 8.17 26 12.78 C27.71 16.57 29.74 20.18 31.75 23.81 C32.1 24.5 32.46 25.19 32.82 25.89 C34.49 29.01 35.59 30.79 38.77 32.45 C39.5 32.63 40.24 32.81 41 33 C41.27 32.28 41.54 31.56 41.82 30.82 C43.85 25.98 46.64 21.57 49.31 17.06 C49.88 16.09 50.45 15.11 51.04 14.1 C52.65 11.37 54.3 8.68 56 6 C56.62 5 56.62 5 57.26 3.99 C58.44 2.34 58.44 2.34 61 0 C64.7 -0.62 64.7 -0.62 68.69 -0.44 C69.7 -0.41 69.7 -0.41 70.74 -0.38 C75.6 -0.2 75.6 -0.2 78 1 C76.67 5.46 74.91 9.12 72.47 13.08 C72.13 13.64 71.78 14.21 71.43 14.79 C70.69 15.99 69.95 17.19 69.21 18.39 C68.05 20.28 66.9 22.18 65.75 24.08 C62.51 29.45 59.29 34.77 55.46 39.75 C45.48 53.16 46.48 67.91 47 84 C44.19 84.03 41.38 84.05 38.56 84.06 C37.36 84.08 37.36 84.08 36.13 84.09 C34.09 84.1 32.04 84.05 30 84 C29 83 29 83 28.97 80.25 C29 79.04 29.04 77.82 29.07 76.57 C29.31 60.24 28.63 47.82 18.61 34.26 C15.67 30.14 13.19 25.73 10.62 21.38 C9.66 19.78 8.69 18.18 7.73 16.59 C5.84 13.44 3.98 10.28 2.15 7.1 C1.53 6.03 1.53 6.03 0.9 4.93 C0 3 0 3 0 0 Z " fill="#2A63E7" transform="translate(1173,225)"/>
<path d="M0 0 C1.01 -0.01 2.03 -0.01 3.07 -0.02 C4.17 -0.01 5.26 -0 6.39 0.01 C8.07 0.01 8.07 0.01 9.79 0.01 C12.17 0.01 14.54 0.02 16.92 0.04 C20.56 0.06 24.21 0.06 27.85 0.05 C30.16 0.06 32.46 0.06 34.76 0.07 C36.41 0.07 36.41 0.07 38.08 0.07 C39.1 0.08 40.11 0.09 41.15 0.1 C42.04 0.1 42.93 0.11 43.85 0.11 C46.01 0.37 46.01 0.37 48.01 2.37 C48.01 5.34 48.01 8.31 48.01 11.37 C27.22 11.87 27.22 11.87 6.01 12.37 C6.01 20.29 6.01 28.21 6.01 36.37 C8.08 36.42 10.15 36.47 12.28 36.52 C14.29 36.58 16.29 36.63 18.29 36.69 C19.68 36.73 21.08 36.76 22.47 36.79 C24.47 36.84 26.47 36.9 28.47 36.96 C29.67 36.99 30.88 37.02 32.12 37.05 C35.01 37.37 35.01 37.37 37.01 39.37 C37.01 42.01 37.01 44.65 37.01 47.37 C21.17 47.87 21.17 47.87 5.01 48.37 C5.34 56.62 5.67 64.87 6.01 73.37 C10.31 73.45 10.31 73.45 14.69 73.52 C17.46 73.57 20.22 73.63 22.99 73.69 C24.92 73.73 26.84 73.76 28.77 73.79 C31.53 73.84 34.3 73.9 37.06 73.96 C37.93 73.97 38.79 73.98 39.68 73.99 C45.78 74.14 45.78 74.14 48.01 76.37 C48.28 79.06 48.1 81.66 48.01 84.37 C40.36 84.45 32.7 84.5 25.05 84.54 C22.44 84.55 19.84 84.57 17.23 84.6 C13.49 84.63 9.76 84.65 6.02 84.67 C4.85 84.68 3.68 84.7 2.47 84.71 C1.39 84.71 0.31 84.71 -0.81 84.71 C-1.76 84.72 -2.72 84.73 -3.7 84.73 C-4.46 84.61 -5.21 84.49 -5.99 84.37 C-8.4 80.75 -8.28 78.1 -8.27 73.92 C-8.27 73.16 -8.28 72.41 -8.28 71.63 C-8.29 69.13 -8.29 66.62 -8.29 64.12 C-8.3 62.39 -8.3 60.65 -8.3 58.91 C-8.31 55.27 -8.31 51.63 -8.31 47.99 C-8.3 43.31 -8.32 38.64 -8.34 33.97 C-8.36 30.39 -8.36 26.8 -8.35 23.21 C-8.35 21.49 -8.36 19.77 -8.37 18.04 C-8.38 15.64 -8.37 13.23 -8.36 10.83 C-8.37 9.75 -8.37 9.75 -8.39 8.66 C-8.36 5.87 -8.28 3.84 -6.78 1.43 C-4.4 0.02 -2.76 -0 0 0 Z " fill="#020202" transform="translate(757.990478515625,224.627685546875)"/>
<path d="M0 0 C1.26 2.52 1.1 4.31 1.06 7.12 C1.05 8.04 1.04 8.95 1.04 9.88 C1.02 10.58 1.01 11.28 1 12 C0.29 11.66 -0.43 11.32 -1.16 10.98 C-2.12 10.53 -3.08 10.08 -4.06 9.62 C-5 9.18 -5.94 8.74 -6.91 8.29 C-18 3.66 -30.01 3.26 -41.28 7.62 C-49.25 11.65 -54.13 17.2 -57.19 25.59 C-59.29 34.44 -59.44 44.48 -55.45 52.82 C-50.12 60.82 -42.22 65.41 -33.06 67.75 C-21.37 68.7 -11.4 67.57 -1 62 C-0.01 62 0.98 62 2 62 C3.17 70.39 3.17 70.39 0.78 73.67 C-7.36 79.45 -21.26 80.97 -31 80 C-31.94 79.91 -32.88 79.81 -33.86 79.72 C-44.78 78.28 -55.45 73.57 -62.69 65 C-69.99 54.77 -73.53 42.42 -71.5 29.95 C-68.95 17.66 -64.5 7.54 -53.94 0.38 C-37.43 -9.51 -16.51 -10.96 0 0 Z " fill="#020202" transform="translate(417,231)"/>
<path d="M0 0 C3.08 2.99 3.44 5.54 3.69 9.75 C3.75 10.73 3.82 11.72 3.89 12.73 C3.94 13.86 3.94 13.86 4 15 C3.3 14.59 2.6 14.18 1.88 13.76 C-9.61 7.23 -20.14 5.08 -33.36 7.65 C-41.19 9.97 -47.22 13.48 -51.56 20.54 C-56.7 30.45 -57.9 41.02 -54.56 51.88 C-51.43 59.37 -45.53 64.02 -38.31 67.44 C-27.04 71.85 -15.41 70.3 -4 67 C-1.41 65.85 0.66 64.62 3 63 C4.65 64.65 4.4 66.48 4.56 68.75 C4.52 73.42 4.52 73.42 2.46 75.7 C-4.41 80.1 -12 81.43 -20 82 C-20.69 82.05 -21.37 82.11 -22.08 82.16 C-35.91 82.73 -48.74 78.15 -58.88 68.81 C-67.32 59.72 -69.51 49.05 -70 37 C-69.33 23.95 -63.53 12.76 -54 4 C-39.47 -8.15 -16.39 -8.27 0 0 Z " fill="#020202" transform="translate(899,229)"/>
<path d="M0 0 C1.61 0 1.61 0 3.26 0 C4.48 0 5.7 -0 6.95 -0.01 C8.29 0 9.62 0.01 10.95 0.02 C12.32 0.02 13.68 0.02 15.04 0.02 C17.9 0.02 20.75 0.03 23.61 0.04 C27.28 0.06 30.94 0.06 34.61 0.06 C37.42 0.06 40.24 0.07 43.05 0.07 C44.4 0.08 45.76 0.08 47.11 0.08 C49 0.08 50.88 0.09 52.77 0.1 C53.84 0.11 54.92 0.11 56.03 0.11 C58.45 0.25 58.45 0.25 59.45 1.25 C59.45 4.55 59.45 7.85 59.45 11.25 C51.2 11.25 42.95 11.25 34.45 11.25 C34.12 35.34 33.79 59.43 33.45 84.25 C29.82 84.25 26.19 84.25 22.45 84.25 C20.57 82.37 21.28 79.12 21.25 76.62 C21.24 75.92 21.23 75.23 21.22 74.52 C21.18 72.22 21.16 69.92 21.13 67.62 C21.11 66.03 21.09 64.44 21.07 62.85 C21.02 58.65 20.97 54.46 20.92 50.27 C20.87 45.99 20.81 41.71 20.76 37.44 C20.65 29.04 20.55 20.64 20.45 12.25 C19.42 12.22 19.42 12.22 18.37 12.19 C15.27 12.09 12.17 11.98 9.08 11.87 C7.46 11.83 7.46 11.83 5.8 11.78 C4.26 11.72 4.26 11.72 2.68 11.66 C1.72 11.63 0.77 11.6 -0.21 11.57 C-2.55 11.25 -2.55 11.25 -4.55 9.25 C-4.8 5.75 -4.8 5.75 -4.55 2.25 C-2.55 0.25 -2.55 0.25 0 0 Z " fill="#020202" transform="translate(930.5495758056641,224.7527618408203)"/>
<path d="M0 0 C1.37 0 2.75 0.02 4.12 0.04 C4.82 0.04 5.52 0.04 6.24 0.04 C11.42 0.09 11.42 0.09 12.56 1.23 C12.65 3.82 12.68 6.38 12.67 8.96 C12.67 9.77 12.67 10.58 12.67 11.42 C12.67 14.11 12.66 16.8 12.66 19.48 C12.65 21.34 12.65 23.2 12.65 25.06 C12.65 29.97 12.64 34.87 12.63 39.77 C12.62 44.77 12.61 49.78 12.61 54.78 C12.6 64.59 12.58 74.41 12.56 84.23 C9.75 84.26 6.93 84.28 4.12 84.29 C3.32 84.3 2.52 84.31 1.69 84.32 C-0.35 84.33 -2.4 84.28 -4.44 84.23 C-6.17 82.5 -5.57 80.29 -5.59 77.99 C-5.59 77.24 -5.59 76.49 -5.59 75.71 C-5.59 74.93 -5.59 74.14 -5.6 73.33 C-5.61 70.71 -5.61 68.1 -5.61 65.48 C-5.61 63.67 -5.62 61.86 -5.62 60.05 C-5.63 56.26 -5.63 52.46 -5.63 48.66 C-5.63 43.78 -5.64 38.9 -5.66 34.03 C-5.67 30.29 -5.67 26.55 -5.67 22.81 C-5.67 21.01 -5.68 19.21 -5.68 17.41 C-5.69 14.9 -5.69 12.39 -5.68 9.88 C-5.69 9.13 -5.7 8.38 -5.7 7.61 C-5.67 2.47 -5.63 0.38 0 0 Z " fill="#2A63E7" transform="translate(1022.44140625,224.76953125)"/>
<path d="M0 0 C2.8 2.05 2.8 2.05 5.31 4.75 C6.58 6.07 6.58 6.07 7.86 7.42 C10.65 10.79 12.03 12.45 11.95 16.88 C10.76 20.78 8.72 23.09 5.88 25.88 C5.41 26.37 4.95 26.87 4.48 27.38 C1.84 30.01 0.15 30.98 -3.54 31.58 C-7.68 30.89 -9.21 29.72 -12.19 26.81 C-13.01 26.04 -13.82 25.26 -14.67 24.46 C-15.44 23.65 -16.21 22.84 -17 22 C-17.78 21.18 -18.56 20.36 -19.36 19.51 C-21 17 -21 17 -21.09 14.55 C-19.61 11.08 -17.26 8.79 -14.56 6.25 C-14.06 5.76 -13.56 5.26 -13.04 4.75 C-8.58 0.43 -6.3 -0.61 0 0 Z " fill="#2A63E7" transform="translate(286,109)"/>
</svg>
